<?xml version="1.0" encoding="UTF-8" standalone="no"?>
<!-- Created with Inkscape (http://www.inkscape.org/) -->

<svg
   xmlns:dc="http://purl.org/dc/elements/1.1/"
   xmlns:cc="http://creativecommons.org/ns#"
   xmlns:rdf="http://www.w3.org/1999/02/22-rdf-syntax-ns#"
   xmlns:svg="http://www.w3.org/2000/svg"
   xmlns="http://www.w3.org/2000/svg"
   xmlns:sodipodi="http://sodipodi.sourceforge.net/DTD/sodipodi-0.dtd"
   xmlns:inkscape="http://www.inkscape.org/namespaces/inkscape"
   width="64mm"
   height="64mm"
   viewBox="0 0 64 64"
   version="1.1"
   id="svg8"
   inkscape:version="0.92.4 (unknown)"
   sodipodi:docname="Airborne Infantry Battalion.svg">
  <defs
     id="defs2" />
  <sodipodi:namedview
     id="base"
     pagecolor="#ffffff"
     bordercolor="#666666"
     borderopacity="1.0"
     inkscape:pageopacity="0.0"
     inkscape:pageshadow="2"
     inkscape:zoom="2.8284271"
     inkscape:cx="77.459909"
     inkscape:cy="137.74819"
     inkscape:document-units="mm"
     inkscape:current-layer="layer2"
     showgrid="false"
     inkscape:window-width="1920"
     inkscape:window-height="1013"
     inkscape:window-x="1280"
     inkscape:window-y="64"
     inkscape:window-maximized="1"
     showguides="true"
     inkscape:guide-bbox="true"
     inkscape:snap-to-guides="false">
    <sodipodi:guide
       position="26.524478,59.795832"
       orientation="0,1"
       id="guide911"
       inkscape:locked="false" />
    <sodipodi:guide
       position="19.976041,56.223957"
       orientation="1,0"
       id="guide913"
       inkscape:locked="false" />
    <sodipodi:guide
       position="44.516145,65.682811"
       orientation="1,0"
       id="guide915"
       inkscape:locked="false" />
    <sodipodi:guide
       position="32.031119,32.163411"
       orientation="1,0"
       id="guide932"
       inkscape:locked="false" />
    <sodipodi:guide
       position="25.995312,34.395832"
       orientation="1,0"
       id="guide976"
       inkscape:locked="false" />
    <sodipodi:guide
       position="37.967707,35.255728"
       orientation="1,0"
       id="guide978"
       inkscape:locked="false" />
    <sodipodi:guide
       position="2.2489583,58.340623"
       orientation="1,0"
       id="guide982"
       inkscape:locked="false" />
    <sodipodi:guide
       position="12.236979,52.122915"
       orientation="0,1"
       id="guide984"
       inkscape:locked="false" />
    <sodipodi:guide
       position="21.761979,11.443229"
       orientation="0,1"
       id="guide986"
       inkscape:locked="false" />
    <sodipodi:guide
       position="61.780207,21.298958"
       orientation="1,0"
       id="guide988"
       inkscape:locked="false" />
    <sodipodi:guide
       position="-13.563928,32.085706"
       orientation="0,1"
       id="guide990"
       inkscape:locked="false" />
  </sodipodi:namedview>
  <metadata
     id="metadata5">
    <rdf:RDF>
      <cc:Work
         rdf:about="">
        <dc:format>image/svg+xml</dc:format>
        <dc:type
           rdf:resource="http://purl.org/dc/dcmitype/StillImage" />
        <dc:title />
      </cc:Work>
    </rdf:RDF>
  </metadata>
  <g
     inkscape:label="Layer 1"
     inkscape:groupmode="layer"
     id="layer1"
     transform="translate(0,-233)"
     style="display:inline">
    <rect
       style="fill:#000000;fill-opacity:1;stroke:#1a1a1d;stroke-width:2.5;stroke-miterlimit:4;stroke-dasharray:none;stroke-opacity:1"
       id="rect12"
       width="63.877991"
       height="44.884682"
       x="0.094494045"
       y="242.77943" />
  </g>
  <g
     inkscape:groupmode="layer"
     id="layer2"
     inkscape:label="Layer 2">
    <path
       style="fill:#ffffff;fill-opacity:1;stroke:#1a1a1d;stroke-width:2.06404042;stroke-miterlimit:4;stroke-dasharray:none;stroke-opacity:1"
       d="m 31.867284,30.766204 c -0.09438,-0.06759 -0.820253,-0.567247 -1.61305,-1.110361 C 27.031599,27.448138 20.857383,23.125572 7.5685876,13.773628 L 2.2489584,10.029956 4.4454505,9.9877233 c 3.019967,-0.058067 50.7820515,-0.07153 54.4075245,-0.015338 l 2.927234,0.045369 -1.382828,0.973573 c -4.060057,2.858475 -25.487088,17.948291 -26.764346,18.84858 -0.822069,0.579441 -1.517052,1.052553 -1.544409,1.051356 -0.02737,-0.0011 -0.126961,-0.05747 -0.221342,-0.125055 z"
       id="path72"
       inkscape:connector-curvature="0" />
    <path
       style="fill:#ffffff;fill-opacity:1;stroke:#1a1a1d;stroke-width:2.0624783;stroke-miterlimit:4;stroke-dasharray:none;stroke-opacity:1"
       d="m 0.12849261,52.835507 c -0.06179981,-0.219326 -0.0478778,-41.15777 0.0140272,-41.250536 0.0374841,-0.05617 1.02747509,0.570711 3.20922819,2.032161 1.735262,1.162366 7.654708,5.120114 13.154328,8.794994 11.108411,7.42271 11.907217,7.958719 13.494795,9.05515 1.057461,0.730313 1.103703,0.771715 0.982389,0.87961 -0.07001,0.06227 -6.237406,4.197823 -13.705307,9.190111 C 9.8100494,46.529288 2.9054631,51.146024 1.9344266,51.796414 0.33730865,52.866149 0.16505265,52.965262 0.12849261,52.835507 Z"
       id="path74"
       inkscape:connector-curvature="0" />
    <path
       style="fill:#ffffff;fill-opacity:1;stroke:#1a1a1d;stroke-width:2.05664277;stroke-miterlimit:4;stroke-dasharray:none;stroke-opacity:1"
       d="M 58.090888,48.854486 C 47.683475,41.980979 41.499132,37.887745 37.931058,35.511284 c -4.887414,-3.25518 -4.905911,-3.267642 -4.904734,-3.304478 5.52e-4,-0.01802 0.771581,-0.545328 1.713349,-1.171837 4.980108,-3.313012 6.643878,-4.41566 13.393162,-8.876201 4.040675,-2.670442 9.19553,-6.076275 11.455243,-7.568517 l 4.108569,-2.713167 0.04279,1.017393 c 0.056,1.331384 0.05621,37.372522 2.11e-4,38.667506 l -0.04301,0.994788 z"
       id="path76"
       inkscape:connector-curvature="0" />
    <path
       style="fill:#ffffff;fill-opacity:1;stroke:#1a1a1d;stroke-width:2.06122565;stroke-miterlimit:4;stroke-dasharray:none;stroke-opacity:1"
       d="M 10.844775,54.05033 2.3119544,54.015708 3.0502965,53.499101 C 4.4250076,52.537241 23.590302,39.055754 27.548126,36.266542 29.71041,34.742708 31.593512,33.406865 31.7328,33.297999 l 0.253247,-0.197932 10.378696,7.302196 c 5.708282,4.016207 12.397786,8.722225 14.865565,10.457821 l 4.486874,3.155626 -9.649008,0.04133 c -10.9864,0.04705 -28.680922,0.04418 -41.223399,-0.0067 z"
       id="path78"
       inkscape:connector-curvature="0" />
  </g>
  <g
     inkscape:groupmode="layer"
     id="layer3"
     inkscape:label="Layer 3">
    <path
       transform="translate(0,-233)"
       style="display:inline;fill:none;stroke:#000000;stroke-width:1.5;stroke-linecap:butt;stroke-linejoin:miter;stroke-opacity:1;stroke-miterlimit:4;stroke-dasharray:none"
       d="m 25.995313,251.6036 6.052343,5.69555 5.920052,-5.60796"
       id="path972"
       inkscape:connector-curvature="0"
       sodipodi:nodetypes="ccc" />
    <path
       style="display:inline;fill:none;stroke:#000000;stroke-width:2;stroke-linecap:butt;stroke-linejoin:miter;stroke-miterlimit:4;stroke-dasharray:none;stroke-opacity:1"
       d="m 19.976042,4.20417 v 6.11848"
       id="path909"
       inkscape:connector-curvature="0" />
    <path
       style="display:inline;fill:none;stroke:#000000;stroke-width:2;stroke-linecap:butt;stroke-linejoin:miter;stroke-miterlimit:4;stroke-dasharray:none;stroke-opacity:1"
       d="m 44.516146,4.20417 v 6.11848"
       id="path909-3"
       inkscape:connector-curvature="0" />
  </g>
</svg>
