<?xml version="1.0" encoding="UTF-8" standalone="no"?>
<!-- Created with Inkscape (http://www.inkscape.org/) -->

<svg
   xmlns:dc="http://purl.org/dc/elements/1.1/"
   xmlns:cc="http://creativecommons.org/ns#"
   xmlns:rdf="http://www.w3.org/1999/02/22-rdf-syntax-ns#"
   xmlns:svg="http://www.w3.org/2000/svg"
   xmlns="http://www.w3.org/2000/svg"
   xmlns:sodipodi="http://sodipodi.sourceforge.net/DTD/sodipodi-0.dtd"
   xmlns:inkscape="http://www.inkscape.org/namespaces/inkscape"
   width="64mm"
   height="64mm"
   viewBox="0 0 64 64"
   version="1.1"
   id="svg8"
   inkscape:version="0.92.4 (unknown)"
   sodipodi:docname="Cruiser.svg">
  <defs
     id="defs2" />
  <sodipodi:namedview
     id="base"
     pagecolor="#ffffff"
     bordercolor="#666666"
     borderopacity="1.0"
     inkscape:pageopacity="0.0"
     inkscape:pageshadow="2"
     inkscape:zoom="2.8284271"
     inkscape:cx="70.025799"
     inkscape:cy="124.38372"
     inkscape:document-units="mm"
     inkscape:current-layer="layer1"
     showgrid="false"
     inkscape:window-width="1920"
     inkscape:window-height="1013"
     inkscape:window-x="1280"
     inkscape:window-y="64"
     inkscape:window-maximized="1"
     showguides="true"
     inkscape:guide-bbox="true">
    <sodipodi:guide
       position="26.524478,59.795832"
       orientation="0,1"
       id="guide911"
       inkscape:locked="false" />
    <sodipodi:guide
       position="19.831399,30.588997"
       orientation="1,0"
       id="guide913"
       inkscape:locked="false" />
    <sodipodi:guide
       position="44.516145,65.682811"
       orientation="1,0"
       id="guide915"
       inkscape:locked="false" />
    <sodipodi:guide
       position="32.047655,49.410936"
       orientation="1,0"
       id="guide932"
       inkscape:locked="false" />
  </sodipodi:namedview>
  <metadata
     id="metadata5">
    <rdf:RDF>
      <cc:Work
         rdf:about="">
        <dc:format>image/svg+xml</dc:format>
        <dc:type
           rdf:resource="http://purl.org/dc/dcmitype/StillImage" />
        <dc:title />
      </cc:Work>
    </rdf:RDF>
  </metadata>
  <g
     inkscape:label="Layer 1"
     inkscape:groupmode="layer"
     id="layer1"
     transform="translate(0,-233)"
     style="display:inline">
    <rect
       style="fill:#ffffff;fill-opacity:1;stroke:#1a1a1d;stroke-width:2.06500006;stroke-miterlimit:4;stroke-dasharray:none;stroke-opacity:1"
       id="rect12"
       width="63.877991"
       height="44.884682"
       x="0.094494045"
       y="242.77943" />
    <g
       aria-label="CG"
       transform="matrix(0.36183578,0,0,0.36183578,-12.431018,227.86369)"
       style="font-style:normal;font-weight:normal;font-size:40px;line-height:1.25;font-family:sans-serif;letter-spacing:0px;word-spacing:0px;fill:#000000;fill-opacity:1;stroke:none"
       id="flowRoot4423">
      <path
         d="M 116.13282,67.875002 V 79.52344 q -5.57813,-5.195313 -11.92188,-7.765626 -6.289061,-2.570312 -13.398437,-2.570312 -14.000001,0 -21.437501,8.585938 -7.437501,8.53125 -7.437501,24.71875 0,16.13282 7.437501,24.71875 7.4375,8.53125 21.437501,8.53125 7.109376,0 13.398437,-2.57031 6.34375,-2.57031 11.92188,-7.76562 v 11.53906 q -5.79688,3.9375 -12.30469,5.90625 -6.453126,1.96875 -13.671877,1.96875 -18.539064,0 -29.203127,-11.32031 -10.664063,-11.375 -10.664063,-31.00782 0,-19.6875 10.664063,-31.007813 10.664063,-11.375001 29.203127,-11.375001 7.328126,0 13.781247,1.96875 6.50782,1.914063 12.19532,5.796876 z"
         style="font-size:112.00000763px"
         id="path1397" />
      <path
         d="M 188.97657,131.58594 V 109.65625 H 170.9297 v -9.07812 h 28.98438 v 35.05469 q -6.39844,4.53906 -14.10938,6.89062 -7.71094,2.29688 -16.46094,2.29688 -19.14063,0 -29.96875,-11.15625 -10.77344,-11.21094 -10.77344,-31.17188 0,-20.015625 10.77344,-31.171876 10.82812,-11.210938 29.96875,-11.210938 7.98438,0 15.14844,1.96875 7.21875,1.96875 13.28906,5.796876 v 11.757813 q -6.125,-5.195313 -13.01562,-7.820313 -6.89063,-2.625 -14.49219,-2.625 -14.98438,0 -22.53125,8.367188 -7.49219,8.367188 -7.49219,24.9375 0,16.51563 7.49219,24.88282 7.54687,8.36718 22.53125,8.36718 5.85156,0 10.44531,-0.98437 4.59375,-1.03906 8.25781,-3.17188 z"
         style="font-size:112.00000763px"
         id="path1399" />
    </g>
  </g>
  <g
     inkscape:groupmode="layer"
     id="layer2"
     inkscape:label="Layer 2" />
  <g
     inkscape:groupmode="layer"
     id="layer7"
     inkscape:label="Layer 3" />
</svg>
