<?xml version="1.0" encoding="UTF-8" standalone="no"?>
<!-- Created with Inkscape (http://www.inkscape.org/) -->

<svg
   xmlns:dc="http://purl.org/dc/elements/1.1/"
   xmlns:cc="http://creativecommons.org/ns#"
   xmlns:rdf="http://www.w3.org/1999/02/22-rdf-syntax-ns#"
   xmlns:svg="http://www.w3.org/2000/svg"
   xmlns="http://www.w3.org/2000/svg"
   xmlns:sodipodi="http://sodipodi.sourceforge.net/DTD/sodipodi-0.dtd"
   xmlns:inkscape="http://www.inkscape.org/namespaces/inkscape"
   width="64mm"
   height="64mm"
   viewBox="0 0 64 64"
   version="1.1"
   id="svg8"
   inkscape:version="0.92.4 (unknown)"
   sodipodi:docname="Special Operations Forces Squadron.svg">
  <defs
     id="defs2" />
  <sodipodi:namedview
     id="base"
     pagecolor="#ffffff"
     bordercolor="#666666"
     borderopacity="1.0"
     inkscape:pageopacity="0.0"
     inkscape:pageshadow="2"
     inkscape:zoom="2.8284271"
     inkscape:cx="3.8208388"
     inkscape:cy="125.64525"
     inkscape:document-units="mm"
     inkscape:current-layer="flowRoot1096"
     showgrid="false"
     inkscape:window-width="1920"
     inkscape:window-height="1013"
     inkscape:window-x="1280"
     inkscape:window-y="64"
     inkscape:window-maximized="1"
     showguides="true"
     inkscape:guide-bbox="true">
    <sodipodi:guide
       position="26.524478,59.795832"
       orientation="0,1"
       id="guide911"
       inkscape:locked="false" />
    <sodipodi:guide
       position="19.976041,56.223957"
       orientation="1,0"
       id="guide913"
       inkscape:locked="false" />
    <sodipodi:guide
       position="44.516145,65.682811"
       orientation="1,0"
       id="guide915"
       inkscape:locked="false" />
    <sodipodi:guide
       position="32.047655,49.410936"
       orientation="1,0"
       id="guide932"
       inkscape:locked="false" />
    <sodipodi:guide
       position="-62.300526,30.963174"
       orientation="0,1"
       id="guide1094"
       inkscape:locked="false" />
  </sodipodi:namedview>
  <metadata
     id="metadata5">
    <rdf:RDF>
      <cc:Work
         rdf:about="">
        <dc:format>image/svg+xml</dc:format>
        <dc:type
           rdf:resource="http://purl.org/dc/dcmitype/StillImage" />
        <dc:title />
      </cc:Work>
    </rdf:RDF>
  </metadata>
  <g
     inkscape:label="Layer 1"
     inkscape:groupmode="layer"
     id="layer1"
     transform="translate(0,-233)"
     style="display:inline">
    <rect
       style="fill:#ffffff;fill-opacity:1;stroke:#1a1a1d;stroke-width:2.06500006;stroke-miterlimit:4;stroke-dasharray:none;stroke-opacity:1"
       id="rect12"
       width="63.877991"
       height="44.884682"
       x="0.28158313"
       y="243.43423" />
    <g
       aria-label="SOF"
       transform="matrix(0.26458333,0,0,0.26458333,-13.283295,230.94203)"
       style="font-style:normal;font-weight:normal;font-size:112px;line-height:1.25;font-family:sans-serif;letter-spacing:0px;word-spacing:0px;fill:#000000;fill-opacity:1;stroke:none"
       id="flowRoot1096">
      <path
         d="m 117.02344,100.79492 v 10.77344 q -6.28906,-3.00781 -11.86719,-4.48438 -5.578125,-1.47656 -10.773438,-1.47656 -9.023437,0 -13.945312,3.5 -4.867188,3.5 -4.867188,9.95313 0,5.41406 3.226563,8.20312 3.28125,2.73438 12.359375,4.42969 l 6.671875,1.36719 q 12.359375,2.35156 18.210935,8.3125 5.90625,5.90625 5.90625,15.85937 0,11.86719 -7.98437,17.99219 -7.92969,6.125 -23.296878,6.125 -5.796875,0 -12.359375,-1.3125 -6.507812,-1.3125 -13.507812,-3.88281 v -11.375 q 6.726562,3.77343 13.179687,5.6875 6.453125,1.91406 12.6875,1.91406 9.460938,0 14.601568,-3.71875 5.14062,-3.71875 5.14062,-10.60938 0,-6.01562 -3.71875,-9.40625 -3.66406,-3.39062 -12.085938,-5.08593 L 87.875,142.24805 q -12.359375,-2.46094 -17.882813,-7.71094 -5.523437,-5.25 -5.523437,-14.60156 0,-10.82813 7.601562,-17.0625 7.65625,-6.234378 21.054688,-6.234378 5.742187,0 11.70313,1.039062 5.96093,1.039063 12.19531,3.117186 z"
         style="font-size:112px;text-align:center;text-anchor:middle"
         id="path828" />
      <path
         d="m 172.3125,105.60742 q -12.03125,0 -19.14063,8.96875 -7.05468,8.96875 -7.05468,24.44531 0,15.42188 7.05468,24.39063 7.10938,8.96875 19.14063,8.96875 12.03125,0 19.03125,-8.96875 7.05469,-8.96875 7.05469,-24.39063 0,-15.47656 -7.05469,-24.44531 -7,-8.96875 -19.03125,-8.96875 z m 0,-8.968748 q 17.17187,0 27.45312,11.539058 10.28125,11.48438 10.28125,30.84375 0,19.30469 -10.28125,30.84375 -10.28125,11.48438 -27.45312,11.48438 -17.22656,0 -27.5625,-11.48438 -10.28125,-11.48437 -10.28125,-30.84375 0,-19.35937 10.28125,-30.84375 10.33594,-11.539058 27.5625,-11.539058 z"
         style="font-size:112px;text-align:center;text-anchor:middle"
         id="path830" />
      <path
         d="M 227.32812,98.115234 H 274.25 v 9.296876 h -35.875 v 24.0625 h 32.375 v 9.29687 h -32.375 v 38.99219 h -11.04688 z"
         style="font-size:112px;text-align:center;text-anchor:middle"
         id="path832" />
    </g>
  </g>
  <g
     inkscape:groupmode="layer"
     id="layer2"
     inkscape:label="Layer 2">
    <path
       style="display:inline;fill:none;stroke:#000000;stroke-width:1.022349;stroke-linecap:butt;stroke-linejoin:miter;stroke-miterlimit:4;stroke-dasharray:none;stroke-opacity:1"
       d="m 19.976042,4.20417 v 6.11848"
       id="path909"
       inkscape:connector-curvature="0" />
    <path
       style="display:inline;fill:none;stroke:#000000;stroke-width:1.022349;stroke-linecap:butt;stroke-linejoin:miter;stroke-miterlimit:4;stroke-dasharray:none;stroke-opacity:1"
       d="m 44.516146,4.20417 v 6.11848"
       id="path909-3"
       inkscape:connector-curvature="0" />
  </g>
</svg>
