<?xml version="1.0" encoding="UTF-8" standalone="no"?>
<!-- Created with Inkscape (http://www.inkscape.org/) -->

<svg
   xmlns:dc="http://purl.org/dc/elements/1.1/"
   xmlns:cc="http://creativecommons.org/ns#"
   xmlns:rdf="http://www.w3.org/1999/02/22-rdf-syntax-ns#"
   xmlns:svg="http://www.w3.org/2000/svg"
   xmlns="http://www.w3.org/2000/svg"
   xmlns:sodipodi="http://sodipodi.sourceforge.net/DTD/sodipodi-0.dtd"
   xmlns:inkscape="http://www.inkscape.org/namespaces/inkscape"
   width="64mm"
   height="64mm"
   viewBox="0 0 64 64"
   version="1.1"
   id="svg8"
   inkscape:version="0.92.4 (unknown)"
   sodipodi:docname="Stealth Bomber Flight.svg">
  <defs
     id="defs2" />
  <sodipodi:namedview
     id="base"
     pagecolor="#ffffff"
     bordercolor="#666666"
     borderopacity="1.0"
     inkscape:pageopacity="0.0"
     inkscape:pageshadow="2"
     inkscape:zoom="4"
     inkscape:cx="78.75992"
     inkscape:cy="114.7928"
     inkscape:document-units="mm"
     inkscape:current-layer="layer1"
     showgrid="false"
     inkscape:window-width="1920"
     inkscape:window-height="1013"
     inkscape:window-x="1280"
     inkscape:window-y="64"
     inkscape:window-maximized="1"
     showguides="true"
     inkscape:guide-bbox="true">
    <sodipodi:guide
       position="26.524478,59.795832"
       orientation="0,1"
       id="guide911"
       inkscape:locked="false" />
    <sodipodi:guide
       position="19.831399,30.588997"
       orientation="1,0"
       id="guide913"
       inkscape:locked="false" />
    <sodipodi:guide
       position="44.516145,65.682811"
       orientation="1,0"
       id="guide915"
       inkscape:locked="false" />
    <sodipodi:guide
       position="32.047655,49.410936"
       orientation="1,0"
       id="guide932"
       inkscape:locked="false" />
  </sodipodi:namedview>
  <metadata
     id="metadata5">
    <rdf:RDF>
      <cc:Work
         rdf:about="">
        <dc:format>image/svg+xml</dc:format>
        <dc:type
           rdf:resource="http://purl.org/dc/dcmitype/StillImage" />
        <dc:title />
      </cc:Work>
    </rdf:RDF>
  </metadata>
  <g
     inkscape:label="Layer 1"
     inkscape:groupmode="layer"
     id="layer1"
     transform="translate(0,-233)"
     style="display:inline">
    <rect
       style="fill:#ffffff;fill-opacity:1;stroke:#1a1a1d;stroke-width:2.06500006;stroke-miterlimit:4;stroke-dasharray:none;stroke-opacity:1"
       id="rect12"
       width="63.877991"
       height="44.884682"
       x="0.094494045"
       y="242.77943" />
    <g
       aria-label="B"
       transform="matrix(0.57067328,0,0,0.57067328,-29.40193,199.30963)"
       style="font-style:normal;font-weight:normal;font-size:40px;line-height:1.25;font-family:sans-serif;letter-spacing:0px;word-spacing:0px;fill:#000000;fill-opacity:1;stroke:none"
       id="flowRoot4156">
      <path
         d="m 103.62109,94.105469 v 10.683591 h 6.32813 q 3.18359,0 4.70703,-1.30859 1.54297,-1.32813 1.54297,-4.04297 0,-2.734375 -1.54297,-4.023438 -1.52344,-1.308593 -4.70703,-1.308593 z m 0,-11.992188 v 8.789063 h 5.83985 q 2.89062,0 4.29687,-1.074219 1.42578,-1.09375 1.42578,-3.320313 0,-2.207031 -1.42578,-3.300781 -1.40625,-1.09375 -4.29687,-1.09375 z m -3.945309,-3.242187 h 10.078129 q 4.51172,0 6.95312,1.875 2.44141,1.875 2.44141,5.332031 0,2.675781 -1.25,4.257812 -1.25,1.582032 -3.67188,1.972657 2.91016,0.625 4.51172,2.617187 1.6211,1.972656 1.6211,4.941406 0,3.906253 -2.65625,6.035153 -2.65625,2.12891 -7.5586,2.12891 H 99.675781 Z"
         style=""
         id="path826" />
    </g>
  </g>
  <g
     inkscape:groupmode="layer"
     id="layer2"
     inkscape:label="Layer 2">
    <path
       style="display:inline;fill:none;stroke:#000000;stroke-width:1.022349;stroke-linecap:butt;stroke-linejoin:miter;stroke-miterlimit:4;stroke-dasharray:none;stroke-opacity:1"
       d="M 32.047656,4.2041663 V 10.322646"
       id="path909-3"
       inkscape:connector-curvature="0" />
  </g>
  <g
     inkscape:groupmode="layer"
     id="layer7"
     inkscape:label="Layer 3">
    <path
       style="fill:#000000;fill-opacity:1;stroke:#000000;stroke-width:0.26458332px;stroke-linecap:butt;stroke-linejoin:miter;stroke-opacity:1"
       d="m 32.047656,32.756189 c 0,0 -8.162318,-9.323595 -12.216256,-6.969052 -4.170769,2.422399 -4.209241,12.11471 0,14.469624 4.170112,2.333023 12.216256,-7.500572 12.216256,-7.500572"
       id="path3596"
       inkscape:connector-curvature="0"
       sodipodi:nodetypes="cssc" />
    <path
       style="fill:#000000;fill-opacity:1;stroke:#000000;stroke-width:0.27004626px;stroke-linecap:butt;stroke-linejoin:miter;stroke-opacity:1"
       d="m 32.047656,32.748463 c 0,0 8.118405,10.440325 12.46849,8.074883 4.405651,-2.395657 4.325498,-12.507096 0,-15.044615 -4.106891,-2.409274 -12.46849,6.969732 -12.46849,6.969732"
       id="path3596-7"
       inkscape:connector-curvature="0"
       sodipodi:nodetypes="cssc" />
  </g>
</svg>
